<svg xmlns="http://www.w3.org/2000/svg" viewBox="92 65 457 457" width="457" height="457">
  <rect x="92" y="65" width="457" height="457" rx="45" fill="#fefdf8"/>
  <path fill="#daa520" d="
    M174.468719,449.467285
    C196.806732,427.035339 218.891785,404.845123 241.002182,382.680145
    C245.471252,378.200043 250.158249,373.931091 254.505356,369.338196
    C256.684692,367.035614 258.509521,366.781189 261.475586,367.982483
    C277.973206,374.664459 295.700043,365.258026 299.828400,347.855133
    C303.578827,332.045532 293.304230,317.180115 276.284149,313.791046
    C262.208618,310.988312 246.846268,322.053802 244.298645,336.637756
    C243.318298,342.249786 243.872757,347.615631 246.138779,352.730194
    C247.335068,355.430298 247.021606,357.172211 244.885391,359.291473
    C221.118484,382.869659 197.440094,406.537079 173.763794,430.206390
    C158.326614,445.639038 142.930634,461.112915 127.521332,476.573395
    C126.362862,477.735718 125.314728,479.036316 123.631310,479.570587
    C122.102875,477.752960 123.434647,476.276154 123.963020,474.888855
    C149.801224,407.047577 175.756454,339.250671 201.421555,271.344086
    C203.513580,265.808807 206.615494,262.182678 211.479630,259.094879
    C246.780777,236.685379 281.980072,214.114624 317.113190,191.442429
    C320.939819,188.973038 323.381805,188.727905 326.877563,192.255020
    C358.310883,223.970367 389.906891,255.525040 421.578430,287.002838
    C424.855560,290.259888 425.291107,292.556580 422.634705,296.671204
    C399.234497,332.916595 376.086121,369.324799 352.946014,405.737457
    C351.139221,408.580566 348.864136,410.279236 345.748627,411.459259
    C282.381073,435.458649 219.042007,459.533203 155.701294,483.603394
    C150.409286,485.614441 145.167160,487.758331 139.857010,489.719025
    C138.224594,490.321686 136.620819,491.549164 133.573013,490.252167
    C147.355270,476.509735 160.789978,463.113831 174.468719,449.467285 Z"/>
  <path fill="#daa520" d="
    M462.674744,156.335983
    C479.391388,173.084122 495.875275,189.567627 512.338318,206.071869
    C517.648987,211.395844 517.801147,217.843964 512.426636,223.247955
    C492.345001,243.439529 472.207123,263.575714 451.995972,283.637634
    C446.115692,289.474457 440.283997,288.831635 433.364990,281.929657
    C416.152039,264.759033 398.958191,247.569229 381.771240,230.372574
    C364.819275,213.411026 347.851471,196.464996 330.961029,179.442276
    C324.829346,173.262543 324.925903,167.426880 331.130066,161.209122
    C350.655792,141.640610 370.203644,122.094093 389.786438,102.582695
    C396.665253,95.728973 402.097351,95.746307 409.104279,102.724487
    C426.921478,120.468620 444.662445,138.289352 462.674744,156.335983 Z"/>
</svg>
